<svg t="1685071539519" class="icon" viewBox="0 0 1024 1024" version="1.1" xmlns="http://www.w3.org/2000/svg" p-id="2359" width="200" height="200"><path d="M3.720533 29.764267m494.933334 0l0 0q494.933333 0 494.933333 494.933333l0 0q0 494.933333-494.933333 494.933333l0 0q-494.933333 0-494.933334-494.933333l0 0q0-494.933333 494.933334-494.933333Z" fill="#05aa83" p-id="2360"></path><path d="M488.174933 204.8a80.042667 80.042667 0 0 1 30.1056 154.2144v23.4496h49.937067a30.72 30.72 0 0 1 3.857067 61.201067l-3.857067 0.238933h-49.9712v285.696c80.6912-10.001067 138.478933-60.586667 156.945067-139.810133l3.072-2.730667a30.72 30.72 0 0 1-40.5504 2.7648l-2.935467-2.525867a30.72 30.72 0 0 1-2.730667-40.5504l2.525867-2.901333 54.8864-55.466667a30.72 30.72 0 0 1 40.584533-2.730666l2.901334 2.56 55.842133 55.466666a30.72 30.72 0 0 1-40.379733 46.114134l-2.901334-2.525867-6.144-6.144c-19.6608 129.570133-118.237867 211.7632-251.4944 211.7632-131.959467 0-231.458133-83.694933-251.6992-211.456l-5.597866 5.632a30.72 30.72 0 0 1-40.5504 2.7648l-2.901334-2.525867a30.72 30.72 0 0 1-2.730666-40.5504l2.525866-2.901333 54.8864-55.466667a30.72 30.72 0 0 1 40.5504-2.730666l2.935467 2.56 55.842133 55.466666a30.72 30.72 0 0 1-40.379733 46.114134l-0.375467-0.273067c18.8416 77.9264 76.970667 129.365333 156.4672 139.946667v-285.559467h-54.4768a30.72 30.72 0 0 1-3.857066-61.201067l3.857066-0.238933h54.442667v-23.552h1.024A80.0768 80.0768 0 0 1 488.174933 204.8z m0 61.44a18.602667 18.602667 0 1 0 0 37.205333 18.602667 18.602667 0 0 0 0-37.205333z" fill="#FFFFFF" p-id="2361"></path></svg>